<svg xmlns="http://www.w3.org/2000/svg" width="82" height="82" viewBox="0 0 82 82" fill="none"><path d="M70 41C70 57.0163 57.0163 70 41 70C24.9837 70 12 57.0163 12 41C12 24.9837 24.9837 12 41 12C57.0163 12 70 24.9837 70 41Z" fill="#CA8F65"></path><path fill-rule="evenodd" clip-rule="evenodd" d="M82 41C82 63.6437 63.6437 82 41 82C18.3563 82 0 63.6437 0 41C0 18.3563 18.3563 0 41 0C63.6437 0 82 18.3563 82 41ZM41 70C57.0163 70 70 57.0163 70 41C70 24.9837 57.0163 12 41 12C24.9837 12 12 24.9837 12 41C12 57.0163 24.9837 70 41 70Z" fill="#CA8F65" fill-opacity="0.3"></path><path d="M41 55.2934C40.8686 55.2941 40.7384 55.2684 40.617 55.2181C40.4957 55.1677 40.3856 55.0936 40.2933 55.0001L32.6133 47.3201C30.9525 45.661 29.8211 43.5466 29.3622 41.2444C28.9033 38.9421 29.1376 36.5555 30.0354 34.3864C30.9332 32.2174 32.4542 30.3633 34.4059 29.0589C36.3577 27.7544 38.6524 27.0581 41 27.0581C43.3475 27.0581 45.6423 27.7544 47.594 29.0589C49.5457 30.3633 51.0667 32.2174 51.9645 34.3864C52.8623 36.5555 53.0966 38.9421 52.6377 41.2444C52.1789 43.5466 51.0474 45.661 49.3866 47.3201L41.7066 55.0001C41.6143 55.0936 41.5042 55.1677 41.3829 55.2181C41.2615 55.2684 41.1314 55.2941 41 55.2934V55.2934ZM41 29.0668C39.0495 29.0681 37.1433 29.6475 35.522 30.7318C33.9007 31.8161 32.6371 33.3565 31.8909 35.1586C31.1447 36.9606 30.9493 38.9434 31.3294 40.8564C31.7096 42.7695 32.6482 44.5269 34.0266 45.9068L41 52.8801L47.9733 45.9068C49.3518 44.5269 50.2904 42.7695 50.6705 40.8564C51.0507 38.9434 50.8553 36.9606 50.1091 35.1586C49.3629 33.3565 48.0993 31.8161 46.478 30.7318C44.8567 29.6475 42.9504 29.0681 41 29.0668V29.0668Z" fill="white"></path><path d="M41 43.3333C40.0111 43.3333 39.0444 43.04 38.2222 42.4906C37.3999 41.9412 36.759 41.1603 36.3806 40.2467C36.0022 39.333 35.9031 38.3277 36.0961 37.3578C36.289 36.3879 36.7652 35.497 37.4645 34.7977C38.1637 34.0985 39.0546 33.6223 40.0245 33.4293C40.9945 33.2364 41.9998 33.3354 42.9134 33.7139C43.827 34.0923 44.6079 34.7332 45.1573 35.5554C45.7068 36.3776 46 37.3443 46 38.3333C46 39.6593 45.4732 40.9311 44.5355 41.8688C43.5978 42.8065 42.3261 43.3333 41 43.3333ZM41 35.3333C40.4067 35.3333 39.8266 35.5092 39.3333 35.8388C38.8399 36.1685 38.4554 36.637 38.2284 37.1852C38.0013 37.7334 37.9419 38.3366 38.0576 38.9185C38.1734 39.5005 38.4591 40.035 38.8787 40.4546C39.2982 40.8741 39.8328 41.1599 40.4147 41.2756C40.9967 41.3914 41.5999 41.332 42.148 41.1049C42.6962 40.8778 43.1648 40.4933 43.4944 40C43.8241 39.5066 44 38.9266 44 38.3333C44 37.5376 43.6839 36.7745 43.1213 36.2119C42.5587 35.6493 41.7956 35.3333 41 35.3333V35.3333Z" fill="white"></path></svg>