<svg xmlns="http://www.w3.org/2000/svg" width="1920" height="36" viewBox="0 0 1920 36" fill="none"><g clip-path="url(#clip0_323_959)"><path fill-rule="evenodd" clip-rule="evenodd" d="M1263.91 -386.34C1263.49 -387.355 1263.28 -388.795 1263.29 -390.643C1263.31 -395.297 1262.52 -397.165 1261.82 -394.147C1261.34 -392.457 1259.55 -391.721 1259.55 -393.248C1259.55 -393.733 1258.94 -394.093 1257.76 -394.057C1256.58 -394.021 1256.13 -394.398 1256.4 -395.207C1257.01 -396.896 1250.07 -397.722 1247.83 -396.249C1246.59 -395.422 1245.25 -395.386 1241.67 -396.087C1238.4 -396.632 1235.09 -396.842 1231.78 -396.716C1218.95 -396.033 1199.83 -395.62 1176.12 -395.494C1162.13 -395.422 1150.66 -395.063 1150.66 -394.686C1150.7 -393.841 1140.3 -394.093 1135.56 -395.045C1134.02 -395.59 1132.34 -395.59 1130.8 -395.045C1130.19 -394.578 1128.15 -394.56 1125.27 -395.045C1116.55 -396.518 1113.24 -396.536 1080.21 -395.35C1076.5 -395.225 1069.83 -395.297 1065.43 -395.512L1054.46 -396.033C1052.95 -396.088 1051.45 -396.348 1050 -396.806C1049.55 -397.004 1049.06 -397.07 1048.57 -396.997C1048.09 -396.924 1047.64 -396.714 1047.26 -396.393C1046.26 -395.548 1045.44 -395.602 1042.88 -396.752C1040.91 -397.615 1039.64 -397.884 1039.44 -397.255C1039.25 -396.626 1038.41 -396.554 1036.12 -397.129C1033.83 -397.704 1032.82 -397.471 1032.45 -396.824C1032.07 -396.177 1030.55 -395.943 1029.01 -396.177C1027.47 -396.411 1021.85 -396.752 1016.49 -396.914C1012.96 -396.863 1009.43 -397.201 1005.98 -397.92C1005.63 -398.106 1005.23 -398.192 1004.83 -398.166C1004.42 -398.141 1004.04 -398.006 1003.71 -397.776C1003.28 -397.469 1002.75 -397.338 1002.23 -397.412C1001.71 -397.485 1001.24 -397.758 1000.92 -398.172C999.45 -399.573 997.624 -399.591 998.268 -398.531C998.913 -397.471 995.817 -397.471 994.689 -398.531C994.081 -399.124 993.169 -399.088 991.575 -398.405C990.266 -397.875 988.885 -397.542 987.478 -397.417C985.957 -397.381 985.849 -397.525 986.851 -398.243C987.514 -398.711 987.693 -399.106 987.21 -399.106C986.513 -398.96 985.884 -398.587 985.42 -398.046C984.668 -397.327 984.4 -397.543 984.4 -398.046C984.4 -398.549 983.183 -399.627 981.733 -400.346C979.336 -401.604 978.96 -401.604 977.761 -400.346C976.937 -399.483 976.866 -398.962 977.457 -398.98C978.047 -398.998 978.495 -398.711 978.495 -398.369C978.495 -398.028 975.632 -397.794 972.178 -397.866C968.725 -397.938 965.843 -398.315 965.825 -398.765C965.808 -399.214 966.129 -399.537 966.828 -399.555C967.525 -399.573 967.543 -399.807 966.828 -400.49C965.36 -401.873 963.07 -400.759 963.786 -398.962C964.269 -397.776 964.036 -397.633 962.336 -398.046C958.005 -399.142 949.934 -399.322 949.38 -398.351C948.628 -396.932 947.072 -397.093 947.591 -398.549C947.931 -399.537 947.054 -399.699 943.26 -399.537C940.218 -399.411 938.357 -399.699 938.124 -400.346C937.641 -401.532 934.545 -401.604 934.545 -400.346C934.564 -399.897 935.153 -399.519 935.833 -399.537C936.514 -399.555 937.104 -399.322 937.123 -398.639C937.14 -397.956 934.956 -397.794 930.555 -397.956C922.699 -398.279 921.268 -398.441 918.959 -399.645C916.65 -400.849 910.226 -401.478 909.689 -400.561C909.439 -400.112 909.886 -399.429 910.746 -398.98C911.962 -398.315 911.658 -398.046 909.117 -398.046C906.952 -397.956 905.735 -398.387 905.162 -399.34C904.446 -400.561 903.928 -400.454 902.889 -399.501C901.852 -398.549 901.386 -398.477 901.1 -399.232C900.599 -400.436 897.521 -400.526 895.731 -399.376C894.891 -398.836 893.96 -399.016 892.923 -399.915C891.544 -401.119 891.276 -400.975 890.65 -400.022C890.024 -399.07 886.713 -398.747 872.129 -398.226C862.018 -397.866 853.912 -397.219 853.357 -396.734C852.247 -395.782 847.989 -396.249 847.22 -397.417C845.911 -398.023 844.46 -398.247 843.032 -398.064C841.619 -397.889 840.184 -398.1 838.88 -398.675C838.629 -399.07 837.377 -399.214 835.873 -398.944C834.37 -398.675 833.297 -398.872 833.297 -399.429C833.288 -399.67 833.189 -399.898 833.02 -400.068C832.851 -400.238 832.624 -400.337 832.385 -400.346C831.865 -400.328 831.74 -399.933 832.026 -399.483C832.313 -399.034 831.705 -398.603 830.702 -398.603C829.498 -398.498 828.358 -398.014 827.446 -397.219C825.853 -395.728 823.205 -396.357 823.205 -398.154C823.168 -399.106 822.453 -399.322 820.843 -399.106C819.707 -398.922 818.544 -399.027 817.46 -399.411C816.87 -399.753 816.422 -399.627 816.422 -399.124C816.419 -399.01 816.441 -398.897 816.483 -398.791C816.508 -398.728 816.54 -398.668 816.58 -398.613C816.607 -398.576 816.636 -398.541 816.668 -398.509C816.749 -398.428 816.844 -398.365 816.95 -398.322L817.021 -398.297C817.051 -398.288 817.082 -398.28 817.113 -398.275C817.169 -398.265 817.224 -398.26 817.281 -398.261C817.334 -398.266 817.387 -398.266 817.439 -398.26C817.474 -398.256 817.51 -398.25 817.545 -398.241L817.615 -398.22C817.723 -398.183 817.822 -398.124 817.904 -398.046C817.987 -397.968 818.052 -397.873 818.097 -397.768C818.119 -397.713 818.135 -397.656 818.146 -397.598C818.155 -397.544 818.159 -397.49 818.158 -397.435C818.176 -396.249 806.884 -396.033 802.805 -397.147C800.586 -397.758 799.69 -398.621 799.887 -399.214C800.084 -399.807 799.923 -400.346 799.566 -400.346C799.328 -400.306 799.108 -400.198 798.931 -400.035C798.753 -399.873 798.625 -399.663 798.564 -399.429C798.384 -398.818 797.74 -398.729 796.04 -399.322C794.34 -399.915 793.552 -399.807 792.837 -398.89C791.406 -397.093 788.56 -397.255 788.005 -399.196C787.867 -399.658 787.586 -400.065 787.204 -400.359C786.822 -400.652 786.357 -400.818 785.876 -400.831C784.82 -400.813 784.463 -400.436 784.82 -399.879C785.912 -398.172 783.711 -397.758 775.443 -398.172C768.59 -398.531 767.122 -398.854 766.031 -400.328C764.492 -402.412 763.347 -402.143 763.526 -400.436C763.704 -398.729 759.41 -398.01 752.395 -398.729C749.085 -399.07 748.011 -399.483 748.332 -400.292C748.869 -401.729 746.901 -402.358 742.678 -402.089C739.779 -401.891 737.149 -400.418 739.779 -400.418C740.585 -400.418 740.548 -400.22 739.618 -399.681C737.647 -399.154 735.595 -399.008 733.57 -399.25C728.416 -399.591 728.416 -399.663 728.416 -404.012C728.416 -405.359 728.309 -405.233 728.04 -404.209C727.772 -403.185 726.733 -402.682 724.944 -402.682C722.86 -402.612 720.78 -402.42 718.717 -402.107C717.397 -401.746 715.999 -401.796 714.708 -402.251C714.44 -402.7 712.633 -402.682 710.629 -402.251C705.397 -401.639 700.13 -401.369 694.863 -401.442L691.144 -401.439C686.664 -401.436 684.354 -401.435 682.045 -401.374C679.586 -401.309 677.129 -401.176 672.054 -400.902L667.717 -400.669C654.744 -399.897 654.35 -400.004 654.35 -401.694C654.332 -402.628 653.921 -403.401 653.473 -403.401C653.239 -403.382 653.021 -403.272 652.867 -403.094C652.713 -402.916 652.635 -402.684 652.65 -402.448C652.685 -401.316 649.375 -398.208 648.032 -398.208C646.319 -397.403 644.727 -396.356 643.308 -395.099C642.409 -394.314 641.46 -393.588 640.469 -392.925C639.622 -394.971 638.718 -397.435 638.454 -398.477C638.185 -399.537 637.415 -400.4 636.769 -400.418L636.651 -400.416L636.514 -400.408C636.433 -400.414 636.348 -400.418 636.258 -400.418C635.614 -400.4 634.844 -399.537 634.576 -398.477C634.313 -397.434 633.408 -394.966 632.561 -392.919C631.565 -393.583 630.612 -394.311 629.709 -395.099C628.288 -396.356 626.695 -397.403 624.978 -398.208C623.634 -398.208 620.319 -401.316 620.355 -402.448C620.37 -402.684 620.292 -402.916 620.137 -403.094C619.983 -403.272 619.765 -403.382 619.53 -403.401C619.082 -403.401 618.67 -402.628 618.652 -401.694C618.652 -400.004 618.258 -399.897 605.266 -400.669L600.906 -400.903C595.836 -401.176 593.379 -401.309 590.918 -401.374C588.606 -401.435 586.293 -401.436 581.806 -401.439L578.082 -401.442C572.808 -401.369 567.534 -401.639 562.294 -402.251C560.288 -402.682 558.477 -402.7 558.209 -402.251C556.916 -401.796 555.517 -401.746 554.195 -402.107C552.129 -402.42 550.046 -402.612 547.958 -402.682C546.167 -402.682 545.127 -403.185 544.858 -404.209C544.59 -405.233 544.482 -405.359 544.482 -404.012C544.482 -399.663 544.482 -399.591 539.321 -399.25C537.293 -399.008 535.238 -399.154 533.265 -399.681C532.333 -400.22 532.296 -400.418 533.103 -400.418C535.737 -400.418 533.103 -401.891 530.2 -402.089C525.971 -402.358 524 -401.729 524.537 -400.292C524.86 -399.483 523.785 -399.07 520.47 -398.729C513.446 -398.01 509.144 -398.729 509.324 -400.436C509.502 -402.143 508.356 -402.412 506.815 -400.328C505.722 -398.854 504.252 -398.531 497.389 -398.172C489.11 -397.758 486.905 -398.172 487.999 -399.879C488.358 -400.436 487.999 -400.813 486.942 -400.831C486.46 -400.818 485.995 -400.652 485.612 -400.359C485.229 -400.065 484.948 -399.658 484.809 -399.196C484.253 -397.255 481.404 -397.093 479.971 -398.89C479.254 -399.807 478.466 -399.915 476.763 -399.322C475.061 -398.729 474.415 -398.818 474.237 -399.429C474.174 -399.663 474.047 -399.873 473.869 -400.035C473.691 -400.198 473.47 -400.306 473.233 -400.346C472.875 -400.346 472.713 -399.807 472.91 -399.214C473.108 -398.621 472.212 -397.758 469.989 -397.147C465.904 -396.033 454.596 -396.249 454.615 -397.435C454.612 -397.549 454.633 -397.662 454.676 -397.768C454.72 -397.873 454.785 -397.968 454.868 -398.046C454.893 -398.069 454.92 -398.092 454.948 -398.112C454.97 -398.128 454.993 -398.143 455.017 -398.156C455.061 -398.182 455.108 -398.204 455.157 -398.22C455.265 -398.258 455.379 -398.272 455.492 -398.261L455.553 -398.262L455.616 -398.268C455.687 -398.277 455.758 -398.295 455.825 -398.322C455.857 -398.335 455.889 -398.351 455.92 -398.368C455.946 -398.382 455.971 -398.398 455.995 -398.415C456.034 -398.443 456.072 -398.474 456.106 -398.509C456.186 -398.589 456.249 -398.685 456.292 -398.791C456.318 -398.853 456.335 -398.919 456.344 -398.985C456.35 -399.031 456.353 -399.077 456.352 -399.124C456.352 -399.627 455.905 -399.753 455.313 -399.411C454.227 -399.027 453.063 -398.922 451.926 -399.106C450.313 -399.322 449.597 -399.106 449.561 -398.154C449.561 -396.357 446.909 -395.728 445.313 -397.219C444.4 -398.014 443.258 -398.498 442.052 -398.603C441.049 -398.603 440.44 -399.034 440.727 -399.483C441.013 -399.933 440.887 -400.328 440.368 -400.346C440.128 -400.337 439.901 -400.238 439.732 -400.068C439.562 -399.898 439.463 -399.67 439.454 -399.429C439.454 -398.872 438.379 -398.675 436.874 -398.944C435.369 -399.214 434.114 -399.07 433.863 -398.675C432.557 -398.1 431.121 -397.889 429.705 -398.064C428.275 -398.247 426.822 -398.023 425.513 -397.417C424.742 -396.249 420.477 -395.782 419.366 -396.734C418.811 -397.219 410.693 -397.866 400.568 -398.226C385.964 -398.747 382.648 -399.07 382.021 -400.022C381.393 -400.975 381.125 -401.119 379.745 -399.915C378.706 -399.016 377.774 -398.836 376.932 -399.376C375.14 -400.526 372.058 -400.436 371.555 -399.232C371.269 -398.477 370.803 -398.549 369.764 -399.501C368.725 -400.454 368.205 -400.561 367.488 -399.34C366.915 -398.387 365.696 -397.956 363.528 -398.046C360.984 -398.046 360.678 -398.315 361.897 -398.98C362.758 -399.429 363.205 -400.112 362.955 -400.561C362.417 -401.478 355.984 -400.849 353.672 -399.645C351.361 -398.441 349.927 -398.279 342.06 -397.956C337.652 -397.794 335.466 -397.956 335.484 -398.639C335.501 -399.322 336.093 -399.555 336.774 -399.537C337.455 -399.519 338.046 -399.897 338.064 -400.346C338.064 -401.604 334.963 -401.532 334.48 -400.346C334.247 -399.699 332.383 -399.411 329.337 -399.537C325.538 -399.699 324.659 -399.537 325 -398.549C325.52 -397.093 323.961 -396.932 323.208 -398.351C322.653 -399.322 314.571 -399.142 310.235 -398.046C308.532 -397.633 308.299 -397.776 308.782 -398.962C309.5 -400.759 307.206 -401.873 305.736 -400.49C305.02 -399.807 305.037 -399.573 305.736 -399.555C306.436 -399.537 306.757 -399.214 306.74 -398.765C306.722 -398.315 303.837 -397.938 300.378 -397.866C296.92 -397.794 294.052 -398.028 294.052 -398.369C294.052 -398.711 294.501 -398.998 295.093 -398.98C295.683 -398.962 295.612 -399.483 294.787 -400.346C293.586 -401.604 293.211 -401.604 290.809 -400.346C289.358 -399.627 288.139 -398.549 288.139 -398.046C288.139 -397.543 287.87 -397.327 287.118 -398.046C286.653 -398.587 286.023 -398.96 285.326 -399.106C284.842 -399.106 285.021 -398.711 285.684 -398.243C286.688 -397.525 286.58 -397.381 285.057 -397.417C283.648 -397.542 282.265 -397.875 280.953 -398.405C279.359 -399.088 278.444 -399.124 277.835 -398.531C276.707 -397.471 273.606 -397.471 274.251 -398.531C274.897 -399.591 273.069 -399.573 271.599 -398.172C271.274 -397.758 270.801 -397.485 270.28 -397.412C269.76 -397.338 269.231 -397.469 268.804 -397.776C268.474 -398.006 268.087 -398.141 267.686 -398.166C267.285 -398.192 266.884 -398.106 266.528 -397.92C263.069 -397.201 259.542 -396.863 256.009 -396.914C250.633 -396.752 245.006 -396.411 243.465 -396.177C241.924 -395.943 240.401 -396.177 240.024 -396.824C239.648 -397.471 238.645 -397.704 236.351 -397.129C234.057 -396.554 233.215 -396.626 233.018 -397.255C232.821 -397.884 231.548 -397.615 229.577 -396.752C227.014 -395.602 226.19 -395.548 225.187 -396.393C224.816 -396.714 224.361 -396.924 223.875 -396.997C223.39 -397.07 222.894 -397.004 222.445 -396.806C220.999 -396.348 219.498 -396.088 217.983 -396.033L206.998 -395.512C202.59 -395.297 195.906 -395.225 192.196 -395.35C159.117 -396.536 155.802 -396.518 147.074 -395.045C144.19 -394.56 142.147 -394.578 141.538 -395.045C139.995 -395.59 138.313 -395.59 136.77 -395.045C132.021 -394.093 121.61 -393.841 121.646 -394.686C121.646 -395.063 110.159 -395.422 96.1466 -395.494C72.4027 -395.62 53.2646 -396.033 40.4153 -396.716C37.0995 -396.842 33.7798 -396.632 30.5062 -396.087C26.9224 -395.386 25.5776 -395.422 24.3414 -396.249C22.1014 -397.722 15.1489 -396.896 15.7579 -395.207C16.0268 -394.398 15.5792 -394.021 14.3958 -394.057C13.2134 -394.093 12.6044 -393.733 12.6044 -393.248C12.6044 -391.721 10.812 -392.457 10.3279 -394.147C9.62955 -397.165 8.84093 -395.297 8.85918 -390.643C8.86591 -388.795 8.65843 -387.355 8.23386 -386.34H0V20.2445H8.85726C8.85918 20.375 8.85918 20.5077 8.85918 20.6426C8.84093 25.2966 9.62955 27.1653 10.3279 24.1466C10.812 22.4575 12.6044 21.7207 12.6044 23.2481C12.6044 23.7333 13.2134 24.0927 14.3958 24.0567C15.5792 24.0208 16.0268 24.3981 15.7579 25.2068C15.1489 26.8958 22.1014 27.7224 24.3414 26.2489C25.5776 25.4224 26.9224 25.3864 30.5062 26.0872C33.7798 26.6317 37.0995 26.8425 40.4153 26.7161C53.2646 26.0333 72.4027 25.62 96.1466 25.4942C110.159 25.4223 121.646 25.063 121.646 24.6856C121.61 23.8411 132.021 24.0926 136.77 25.045C138.313 25.5903 139.995 25.5903 141.538 25.045C142.147 24.5778 144.19 24.5598 147.074 25.045C155.802 26.5185 159.117 26.5365 192.196 25.3505C195.906 25.2247 202.59 25.2966 206.998 25.5122L217.983 26.0333C219.498 26.0879 220.999 26.3478 222.445 26.806C222.894 27.0037 223.39 27.0698 223.875 26.9966C224.361 26.9235 224.816 26.7141 225.187 26.3927C226.19 25.5481 227.014 25.6021 229.577 26.7521C231.548 27.6146 232.821 27.8841 233.018 27.2552C233.215 26.6263 234.057 26.5544 236.351 27.1294C238.645 27.7044 239.648 27.4708 240.024 26.8239C240.401 26.177 241.924 25.9435 243.465 26.177C245.006 26.4106 250.633 26.7521 256.009 26.9138C259.542 26.8631 263.069 27.2006 266.528 27.92C266.884 28.1064 267.285 28.1915 267.686 28.1662C267.864 28.1549 268.04 28.1221 268.208 28.0689C268.419 28.0023 268.621 27.904 268.804 27.7763C269.231 27.4687 269.76 27.3382 270.28 27.4118C270.801 27.4855 271.274 27.7576 271.599 28.1716C273.069 29.5732 274.897 29.5912 274.251 28.531C273.606 27.4708 276.707 27.4708 277.835 28.531C278.444 29.124 279.359 29.088 280.953 28.4052C282.265 27.8746 283.648 27.5415 285.057 27.4169C286.58 27.381 286.688 27.5247 285.684 28.2435C285.021 28.7107 284.842 29.106 285.326 29.106C286.023 28.9595 286.653 28.587 287.118 28.0459C287.87 27.3271 288.139 27.5427 288.139 28.0459C288.139 28.5489 289.358 29.6271 290.809 30.3458C293.211 31.6036 293.586 31.6036 294.787 30.3458C295.612 29.4833 295.683 28.9622 295.093 28.9802C294.501 28.9982 294.052 28.7107 294.052 28.3692C294.052 28.0279 296.92 27.7943 300.378 27.8661C303.837 27.938 306.722 28.3154 306.74 28.7646C306.757 29.2138 306.436 29.5373 305.736 29.5552C305.037 29.5732 305.02 29.8068 305.736 30.4896C307.206 31.8732 309.5 30.7591 308.782 28.9622C308.299 27.7763 308.532 27.6326 310.235 28.0459C314.571 29.142 322.653 29.3216 323.208 28.3513C323.961 26.9318 325.52 27.0935 325 28.5489C324.659 29.5373 325.538 29.6989 329.337 29.5372C332.383 29.4115 334.247 29.699 334.48 30.3458C334.963 31.5318 338.064 31.6036 338.064 30.3458C338.046 29.8966 337.455 29.5193 336.774 29.5372C336.093 29.5552 335.501 29.3216 335.484 28.6388C335.466 27.9559 337.652 27.7943 342.06 27.956C349.927 28.2794 351.361 28.4412 353.672 29.645C355.984 30.849 362.417 31.4779 362.955 30.5615C363.205 30.1122 362.758 29.4294 361.897 28.9802C360.678 28.3154 360.984 28.0459 363.528 28.0459C365.696 27.956 366.915 28.3872 367.488 29.3396C368.205 30.5614 368.725 30.4537 369.764 29.5013C370.803 28.5489 371.269 28.4771 371.555 29.2317C372.058 30.4357 375.14 30.5255 376.932 29.3755C377.774 28.8364 378.706 29.0161 379.745 29.9146C381.125 31.1185 381.393 30.9747 382.021 30.0224C382.648 29.07 385.964 28.7466 400.568 28.2255C410.693 27.8661 418.811 27.2193 419.366 26.7341C420.477 25.7817 424.742 26.2489 425.513 27.4169C426.822 28.0227 428.275 28.2468 429.705 28.0638C431.121 27.8893 432.557 28.1003 433.863 28.6747C434.114 29.07 435.369 29.2138 436.874 28.9443C438.379 28.6748 439.454 28.8724 439.454 29.4294C439.463 29.6696 439.562 29.8976 439.732 30.0676C439.823 30.159 439.931 30.2301 440.049 30.2776C440.15 30.3183 440.257 30.3418 440.368 30.3458C440.887 30.3279 441.013 29.9325 440.727 29.4833C440.44 29.0341 441.049 28.6028 442.052 28.6028C443.258 28.4982 444.4 28.014 445.313 27.2193C446.909 25.7278 449.561 26.3568 449.561 28.1536C449.597 29.106 450.313 29.3216 451.926 29.106C453.063 28.9221 454.227 29.0271 455.313 29.4115C455.905 29.7529 456.352 29.6271 456.352 29.124C456.355 29.01 456.335 28.8968 456.292 28.791C456.249 28.6853 456.186 28.5892 456.106 28.5086C456.026 28.428 455.93 28.3646 455.825 28.3221C455.76 28.2961 455.693 28.2783 455.624 28.2689L455.559 28.2627L455.492 28.2615C455.379 28.2717 455.265 28.2577 455.157 28.2205C455.05 28.1832 454.952 28.1237 454.868 28.0456C454.826 28.006 454.788 27.9621 454.757 27.9146C454.725 27.8687 454.698 27.8193 454.676 27.7675L454.65 27.6954C454.638 27.6549 454.628 27.6134 454.622 27.5715L454.619 27.5384C454.615 27.5041 454.614 27.4695 454.615 27.4349C454.596 26.2489 465.904 26.0333 469.989 27.1474C472.212 27.7583 473.108 28.6208 472.91 29.2138C472.713 29.8068 472.875 30.3458 473.233 30.3458C473.47 30.3057 473.691 30.198 473.869 30.0354C474.047 29.873 474.174 29.6626 474.237 29.4294C474.415 28.8184 475.061 28.7287 476.763 29.3216C478.466 29.9146 479.254 29.8068 479.971 28.8903C481.404 27.0934 484.253 27.2552 484.809 29.1958C484.948 29.6585 485.229 30.0654 485.612 30.3589C485.995 30.6524 486.46 30.8176 486.942 30.831C487.999 30.813 488.358 30.4357 487.999 29.8786C486.905 28.1716 489.11 27.7583 497.389 28.1716C504.252 28.531 505.722 28.8544 506.815 30.3278C508.356 32.4123 509.502 32.1427 509.324 30.4357C509.144 28.7287 513.446 28.0099 520.47 28.7287C523.785 29.07 524.86 29.4833 524.537 30.2919C524 31.7295 525.971 32.3584 530.2 32.0888C533.103 31.8912 535.737 30.4177 533.103 30.4177C532.296 30.4177 532.333 30.2201 533.265 29.681C535.238 29.154 537.293 29.0076 539.321 29.2497C544.482 29.5912 544.482 29.663 544.482 34.0115C544.482 35.3592 544.59 35.2334 544.858 34.2091C545.127 33.1849 546.167 32.6818 547.958 32.6818C550.046 32.6118 552.129 32.4198 554.195 32.1068C555.517 31.7455 556.916 31.7957 558.209 32.2505C558.477 32.6998 560.288 32.6818 562.294 32.2505C567.534 31.6391 572.808 31.369 578.082 31.442L581.805 31.4389C586.292 31.4362 588.606 31.4348 590.918 31.3738C593.381 31.3088 595.842 31.1762 600.923 30.9023L605.266 30.6693C618.258 29.8966 618.652 30.0045 618.652 31.6935C618.67 32.6279 619.082 33.4006 619.53 33.4006C619.765 33.3822 619.983 33.272 620.137 33.0937C620.292 32.9155 620.37 32.6837 620.355 32.4482C620.319 31.3162 623.634 28.2075 624.978 28.2075C626.695 27.403 628.288 26.3562 629.709 25.0989C631.036 23.9415 632.471 22.9127 633.992 22.0262C634.243 22.0083 634.512 23.1044 634.512 24.5419C634.566 26.4106 634.924 27.0935 636.017 27.0575C637.11 27.0216 637.218 27.2552 636.465 28.0459C635.121 29.4654 635.264 30.4177 636.769 30.4177C637.415 30.3998 638.185 29.5372 638.454 28.4771C638.723 27.4169 639.655 24.8833 640.514 22.8169C640.85 21.9697 641.158 21.1118 641.435 20.2445H654.284C654.561 21.1118 654.867 21.9697 655.203 22.8169C656.062 24.8833 656.993 27.4169 657.261 28.4771C657.529 29.5372 658.299 30.3998 658.943 30.4177C660.446 30.4177 660.59 29.4654 659.247 28.0459C658.496 27.2552 658.603 27.0216 659.695 27.0575C660.786 27.0935 661.144 26.4106 661.198 24.5419C661.198 23.1044 661.466 22.0083 661.717 22.0262C663.236 22.9127 664.667 23.9415 665.994 25.0989C667.413 26.3562 669.003 27.403 670.718 28.2075C672.06 28.2075 675.371 31.3162 675.334 32.4482C675.32 32.6837 675.398 32.9155 675.551 33.0937C675.706 33.272 675.923 33.3822 676.157 33.4006C676.605 33.4006 677.017 32.6279 677.034 31.6935C677.034 30.0045 677.428 29.8966 690.402 30.6693L694.737 30.9022C699.812 31.1761 702.27 31.3088 704.729 31.3738C707.605 31.4498 710.482 31.4333 717.548 31.442C722.815 31.369 728.081 31.6391 733.313 32.2505C735.318 32.6818 737.125 32.6998 737.394 32.2505C738.684 31.7957 740.082 31.7455 741.402 32.1068C743.464 32.4198 745.544 32.6118 747.629 32.6818C749.419 32.6818 750.456 33.1849 750.725 34.2091C750.993 35.2334 751.101 35.3592 751.101 34.0115C751.101 29.663 751.101 29.5912 756.254 29.2497C758.28 29.0076 760.332 29.154 762.303 29.681C763.234 30.2201 763.269 30.4177 762.464 30.4177C759.833 30.4177 762.464 31.8912 765.363 32.0888C769.586 32.3584 771.555 31.7295 771.018 30.2919C770.695 29.4833 771.769 29.07 775.08 28.7287C782.094 28.0099 786.39 28.7287 786.21 30.4357C786.031 32.1427 787.176 32.4123 788.715 30.3278C789.807 28.8544 791.274 28.531 798.129 28.1716C806.395 27.7583 808.597 28.1716 807.504 29.8786C807.147 30.4357 807.505 30.813 808.561 30.831C808.888 30.8219 809.207 30.7427 809.498 30.6009C809.635 30.5339 809.766 30.453 809.889 30.3589C809.993 30.2784 810.09 30.1894 810.18 30.093C810.282 29.9817 810.374 29.8606 810.451 29.7315C810.553 29.5649 810.634 29.385 810.691 29.1958C811.245 27.2552 814.09 27.0934 815.522 28.8903C816.238 29.8068 817.025 29.9146 818.725 29.3216C820.425 28.7287 821.069 28.8184 821.248 29.4294C821.284 29.563 821.34 29.6892 821.415 29.8031C821.472 29.888 821.539 29.9661 821.615 30.0354C821.793 30.198 822.014 30.3057 822.25 30.3458C822.608 30.3458 822.77 29.8068 822.573 29.2138C822.376 28.6208 823.27 27.7583 825.489 27.1474C829.569 26.0333 840.861 26.2489 840.842 27.4349C840.846 27.5489 840.825 27.6622 840.781 27.7675C840.737 27.8727 840.671 27.9676 840.589 28.0456C840.506 28.1237 840.408 28.1832 840.301 28.2205C840.262 28.2337 840.224 28.2439 840.184 28.2512C840.112 28.2646 840.039 28.2681 839.966 28.2615C839.852 28.259 839.74 28.2796 839.634 28.3221C839.529 28.3646 839.433 28.428 839.354 28.5086C839.273 28.5892 839.209 28.6853 839.167 28.791C839.146 28.8448 839.13 28.9006 839.119 28.9573C839.11 29.0122 839.106 29.068 839.107 29.124C839.107 29.6271 839.554 29.7529 840.145 29.4115C841.23 29.0271 842.392 28.9221 843.527 29.106C845.138 29.3216 845.854 29.106 845.889 28.1536C845.889 26.3568 848.537 25.7278 850.13 27.2193C851.043 28.014 852.184 28.4982 853.387 28.6028C854.389 28.6028 854.997 29.0341 854.711 29.4833C854.425 29.9325 854.55 30.3279 855.069 30.3458C855.308 30.337 855.535 30.2375 855.705 30.0676C855.807 29.9651 855.884 29.8416 855.93 29.707C855.961 29.6183 855.978 29.5249 855.982 29.4294C855.982 28.8724 857.056 28.6748 858.559 28.9443C860.062 29.2138 861.315 29.07 861.564 28.6747C862.869 28.1003 864.303 27.8893 865.717 28.0638C867.145 28.2468 868.596 28.0227 869.904 27.4169C870.673 26.2489 874.932 25.7817 876.042 26.7341C876.596 27.2193 884.703 27.8661 894.813 28.2255C909.397 28.7466 912.708 29.07 913.334 30.0224C913.961 30.9747 914.229 31.1185 915.607 29.9146C916.644 29.0161 917.575 28.8364 918.417 29.3755C920.206 30.5255 923.284 30.4357 923.785 29.2317C924.071 28.4771 924.536 28.5489 925.575 29.5013C926.612 30.4537 927.131 30.5614 927.847 29.3396C928.42 28.3872 929.636 27.956 931.802 28.0459C934.343 28.0459 934.647 28.3154 933.43 28.9802C932.571 29.4294 932.124 30.1122 932.375 30.5615C932.911 31.4779 939.336 30.849 941.644 29.645C943.952 28.4412 945.384 28.2794 953.24 27.956C957.642 27.7943 959.825 27.9559 959.807 28.6388C959.789 29.3216 959.199 29.5552 958.519 29.5372C957.839 29.5193 957.248 29.8966 957.23 30.3458C957.23 31.6036 960.326 31.5318 960.809 30.3458C961.041 29.699 962.903 29.4115 965.945 29.5372C969.738 29.6989 970.615 29.5373 970.275 28.5489C969.756 27.0935 971.313 26.9318 972.065 28.3513C972.62 29.3216 980.69 29.142 985.021 28.0459C986.721 27.6326 986.953 27.7763 986.47 28.9622C985.754 30.7591 988.044 31.8732 989.512 30.4896C990.228 29.8068 990.21 29.5732 989.512 29.5552C988.815 29.5373 988.492 29.2138 988.51 28.7646C988.527 28.3154 991.409 27.938 994.862 27.8661C998.316 27.7943 1001.18 28.0279 1001.18 28.3692C1001.18 28.7107 1000.73 28.9982 1000.14 28.9802C999.551 28.9622 999.623 29.4833 1000.45 30.3458C1001.64 31.6036 1002.02 31.6036 1004.42 30.3458C1005.87 29.6271 1007.08 28.5489 1007.08 28.0459C1007.08 27.5427 1007.35 27.3271 1008.1 28.0459C1008.57 28.587 1009.2 28.9595 1009.89 29.106C1010.38 29.106 1010.2 28.7107 1009.54 28.2435C1008.53 27.5247 1008.64 27.381 1010.16 27.4169C1011.57 27.5415 1012.95 27.8746 1014.26 28.4052C1015.85 29.088 1016.77 29.124 1017.37 28.531C1018.5 27.4708 1021.6 27.4708 1020.95 28.531C1020.31 29.5912 1022.13 29.5732 1023.6 28.1716C1023.78 27.9466 1024 27.7635 1024.25 27.6314C1024.45 27.5205 1024.68 27.4455 1024.92 27.4118C1025.44 27.3382 1025.97 27.4687 1026.39 27.7763C1026.72 28.0061 1027.11 28.1409 1027.51 28.1662C1027.91 28.1915 1028.31 28.1064 1028.67 27.92C1032.12 27.2006 1035.64 26.8631 1039.17 26.9138C1044.54 26.7521 1050.16 26.4106 1051.7 26.177C1053.24 25.9435 1054.76 26.177 1055.13 26.8239C1055.51 27.4708 1056.51 27.7044 1058.8 27.1294C1061.09 26.5544 1061.93 26.6263 1062.13 27.2552C1062.33 27.8841 1063.6 27.6146 1065.56 26.7521C1068.12 25.6021 1068.95 25.5481 1069.95 26.3927C1070.32 26.7141 1070.77 26.9235 1071.26 26.9966C1071.74 27.0698 1072.24 27.0037 1072.69 26.806C1074.13 26.3478 1075.63 26.0879 1077.14 26.0333L1088.11 25.5122C1092.51 25.2966 1099.19 25.2247 1102.89 25.3505C1135.93 26.5365 1139.24 26.5185 1147.95 25.045C1150.83 24.5598 1152.87 24.5778 1153.48 25.045C1155.02 25.5903 1156.7 25.5903 1158.24 25.045C1162.98 24.0926 1173.38 23.8411 1173.34 24.6856C1173.34 25.063 1184.82 25.4223 1198.81 25.4942C1222.52 25.62 1241.63 26.0333 1254.46 26.7161C1257.77 26.8425 1261.09 26.6317 1264.36 26.0872C1267.94 25.3864 1269.28 25.4224 1270.51 26.2489C1272.75 27.7224 1279.69 26.8958 1279.08 25.2068C1278.85 24.5113 1279.15 24.1348 1279.99 24.0659C1280.68 25.8163 1281.33 27.6239 1281.55 28.4771C1281.82 29.5372 1282.59 30.3998 1283.23 30.4177C1284.74 30.4177 1284.88 29.4654 1283.54 28.0459C1282.78 27.2552 1282.89 27.0216 1283.98 27.0575C1284.88 27.087 1285.28 26.6328 1285.43 25.4371C1285.69 25.0064 1285.89 23.8135 1285.96 22.0387C1285.97 22.0319 1285.98 22.0279 1285.99 22.0265L1286.01 22.0262C1287.53 22.9127 1288.96 23.9415 1290.29 25.0989C1291.71 26.3562 1293.31 27.403 1295.02 28.2075C1296.37 28.2075 1299.68 31.3162 1299.64 32.4482C1299.63 32.6837 1299.71 32.9155 1299.86 33.0937C1300.02 33.272 1300.23 33.3822 1300.47 33.4006C1300.92 33.4006 1301.33 32.6279 1301.35 31.6935C1301.35 30.0045 1301.74 29.8966 1314.73 30.6693L1319.08 30.9023C1321.52 31.0341 1323.36 31.1332 1324.88 31.2077C1325.87 31.2562 1326.73 31.2943 1327.53 31.3243C1328.07 31.3441 1328.57 31.3604 1329.08 31.3738C1331.39 31.4348 1333.71 31.4362 1338.19 31.4389L1341.92 31.442C1347.19 31.369 1352.47 31.6391 1357.71 32.2505C1359.71 32.6818 1361.52 32.6998 1361.79 32.2505C1363.08 31.7957 1364.48 31.7455 1365.8 32.1068C1367.87 32.4198 1369.95 32.6118 1372.04 32.6818C1373.83 32.6818 1374.87 33.1849 1375.14 34.2091C1375.41 35.2334 1375.52 35.3592 1375.52 34.0115C1375.52 29.663 1375.52 29.5912 1380.68 29.2497C1382.71 29.0076 1384.76 29.154 1386.74 29.681C1387.67 30.2201 1387.7 30.4177 1386.9 30.4177C1384.26 30.4177 1386.9 31.8912 1389.8 32.0888C1394.03 32.3584 1396 31.7295 1395.46 30.2919C1395.14 29.4833 1396.22 29.07 1399.53 28.7287C1406.55 28.0099 1410.86 28.7287 1410.68 30.4357C1410.5 32.1427 1411.64 32.4123 1413.19 30.3278C1414.28 28.8544 1415.75 28.531 1422.61 28.1716C1430.89 27.7583 1433.09 28.1716 1432 29.8786C1431.64 30.4357 1432 30.813 1433.06 30.831C1433.54 30.8176 1434.01 30.6524 1434.39 30.3589C1434.77 30.0654 1435.05 29.6585 1435.19 29.1958C1435.75 27.2552 1438.6 27.0934 1440.03 28.8903C1440.75 29.8068 1441.53 29.9146 1443.24 29.3216C1444.94 28.7287 1445.58 28.8184 1445.76 29.4294C1445.79 29.514 1445.82 29.5956 1445.86 29.673C1445.92 29.8089 1446.02 29.9319 1446.13 30.0354C1446.31 30.198 1446.53 30.3057 1446.77 30.3458C1447.13 30.3458 1447.29 29.8068 1447.09 29.2138C1446.89 28.6208 1447.79 27.7583 1450.01 27.1474C1454.1 26.0333 1465.4 26.2489 1465.39 27.4349C1465.39 27.5489 1465.37 27.6622 1465.32 27.7675C1465.28 27.8727 1465.21 27.9676 1465.13 28.0456C1465.05 28.1237 1464.95 28.1832 1464.84 28.2205C1464.74 28.2577 1464.62 28.2717 1464.51 28.2615C1464.39 28.259 1464.28 28.2796 1464.18 28.3221C1464.07 28.3646 1463.97 28.428 1463.89 28.5086C1463.86 28.5412 1463.83 28.5762 1463.81 28.6134C1463.77 28.6684 1463.73 28.728 1463.71 28.791C1463.67 28.8968 1463.65 29.01 1463.65 29.124C1463.65 29.6271 1464.1 29.7529 1464.69 29.4115C1465.77 29.0271 1466.94 28.9221 1468.07 29.106C1469.69 29.3216 1470.4 29.106 1470.44 28.1536C1470.44 26.3568 1473.09 25.7278 1474.69 27.2193C1475.6 28.014 1476.74 28.4982 1477.95 28.6028C1478.95 28.6028 1479.56 29.0341 1479.27 29.4833C1478.99 29.9325 1479.11 30.3279 1479.63 30.3458C1479.87 30.337 1480.1 30.2375 1480.27 30.0676C1480.44 29.8976 1480.54 29.6696 1480.55 29.4294C1480.55 28.8724 1481.62 28.6748 1483.13 28.9443C1484.63 29.2138 1485.89 29.07 1486.14 28.6747C1487.44 28.1003 1488.88 27.8893 1490.29 28.0638C1491.72 28.2468 1493.18 28.0227 1494.49 27.4169C1495.26 26.2489 1499.52 25.7817 1500.63 26.7341C1501.19 27.2193 1509.31 27.8661 1519.43 28.2255C1534.04 28.7466 1537.35 29.07 1537.98 30.0224C1538.61 30.9747 1538.87 31.1185 1540.25 29.9146C1541.29 29.0161 1542.23 28.8364 1543.07 29.3755C1544.86 30.5255 1547.94 30.4357 1548.44 29.2317C1548.73 28.4771 1549.2 28.5489 1550.24 29.5013C1551.28 30.4537 1551.79 30.5614 1552.51 29.3396C1553.09 28.3872 1554.3 27.956 1556.47 28.0459C1559.02 28.0459 1559.32 28.3154 1558.1 28.9802C1557.24 29.4294 1556.79 30.1122 1557.05 30.5615C1557.58 31.4779 1564.02 30.849 1566.33 29.645C1568.64 28.4412 1570.07 28.2794 1577.94 27.956C1582.35 27.7943 1584.53 27.9559 1584.52 28.6388C1584.5 29.3216 1583.91 29.5552 1583.23 29.5372C1582.55 29.5193 1581.95 29.8966 1581.94 30.3458C1581.94 31.6036 1585.04 31.5318 1585.52 30.3458C1585.75 29.699 1587.62 29.4115 1590.66 29.5372C1594.46 29.6989 1595.34 29.5373 1595 28.5489C1594.48 27.0935 1596.04 26.9318 1596.79 28.3513C1597.35 29.3216 1605.43 29.142 1609.77 28.0459C1611.47 27.6326 1611.7 27.7763 1611.22 28.9622C1610.5 30.7591 1612.79 31.8732 1614.26 30.4896C1614.98 29.8068 1614.96 29.5732 1614.26 29.5552C1613.56 29.5373 1613.24 29.2138 1613.26 28.7646C1613.28 28.3154 1616.16 27.938 1619.62 27.8661C1623.08 27.7943 1625.95 28.0279 1625.95 28.3692C1625.95 28.7107 1625.5 28.9982 1624.91 28.9802C1624.32 28.9622 1624.39 29.4833 1625.21 30.3458C1626.41 31.6036 1626.79 31.6036 1629.19 30.3458C1630.64 29.6271 1631.86 28.5489 1631.86 28.0459C1631.86 27.5427 1632.13 27.3271 1632.88 28.0459C1633.35 28.587 1633.98 28.9595 1634.67 29.106C1635.16 29.106 1634.98 28.7107 1634.32 28.2435C1633.31 27.5247 1633.42 27.381 1634.94 27.4169C1636.35 27.5415 1637.73 27.8746 1639.05 28.4052C1640.64 29.088 1641.56 29.124 1642.16 28.531C1643.29 27.4708 1646.39 27.4708 1645.75 28.531C1645.1 29.5912 1646.93 29.5732 1648.4 28.1716C1648.73 27.7576 1649.2 27.4855 1649.72 27.4118C1650.24 27.3382 1650.77 27.4687 1651.2 27.7763C1651.53 28.0061 1651.91 28.1409 1652.31 28.1662C1652.72 28.1915 1653.12 28.1064 1653.47 27.92C1656.93 27.2006 1660.46 26.8631 1663.99 26.9138C1669.37 26.7521 1674.99 26.4106 1676.54 26.177C1678.08 25.9435 1679.6 26.177 1679.98 26.8239C1680.35 27.4708 1681.36 27.7044 1683.65 27.1294C1685.94 26.5544 1686.79 26.6263 1686.98 27.2552C1687.18 27.8841 1688.45 27.6146 1690.42 26.7521C1692.99 25.6021 1693.81 25.5481 1694.81 26.3927C1694.92 26.4823 1695.03 26.5633 1695.14 26.635C1695.19 26.6651 1695.24 26.6936 1695.29 26.7204C1695.37 26.7633 1695.45 26.8021 1695.54 26.8363C1695.63 26.8724 1695.72 26.9036 1695.81 26.9296C1695.91 26.9583 1696.02 26.9807 1696.12 26.9966C1696.34 27.0286 1696.55 27.034 1696.76 27.0134L1696.85 27.0029C1696.91 26.9957 1696.96 26.9869 1697.02 26.9763C1697.12 26.9564 1697.22 26.9305 1697.31 26.8986C1697.39 26.8718 1697.48 26.841 1697.56 26.806C1699 26.3478 1700.5 26.0879 1702.02 26.0333L1713 25.5122C1717.41 25.2966 1724.09 25.2247 1727.8 25.3505C1760.88 26.5365 1764.2 26.5185 1772.93 25.045C1775.81 24.5598 1777.85 24.5778 1778.46 25.045C1780.01 25.5903 1781.69 25.5903 1783.23 25.045C1787.98 24.0926 1798.39 23.8411 1798.35 24.6856C1798.35 25.063 1809.84 25.4223 1823.85 25.4942C1847.6 25.62 1866.74 26.0333 1879.58 26.7161C1882.9 26.8425 1886.22 26.6317 1889.49 26.0872C1893.08 25.3864 1894.42 25.4224 1895.66 26.2489C1897.9 27.7224 1904.85 26.8958 1904.24 25.2068C1903.97 24.3981 1904.42 24.0208 1905.6 24.0567C1906.79 24.0927 1907.4 23.7333 1907.4 23.2481C1907.4 21.7207 1909.19 22.4575 1909.67 24.1466C1910.37 27.1653 1911.16 25.2966 1911.14 20.6426C1911.14 20.5077 1911.14 20.375 1911.14 20.2445H1920V-386.34H1911.77C1911.34 -387.355 1911.13 -388.795 1911.14 -390.643C1911.16 -395.297 1910.37 -397.165 1909.67 -394.147C1909.19 -392.457 1907.4 -391.721 1907.4 -393.248C1907.4 -393.733 1906.79 -394.093 1905.6 -394.057C1904.42 -394.021 1903.97 -394.398 1904.24 -395.207C1904.85 -396.896 1897.9 -397.722 1895.66 -396.249C1894.42 -395.422 1893.08 -395.386 1889.49 -396.087C1886.22 -396.632 1882.9 -396.842 1879.58 -396.716C1866.74 -396.033 1847.6 -395.62 1823.85 -395.494C1809.84 -395.422 1798.35 -395.063 1798.35 -394.686C1798.39 -393.841 1787.98 -394.093 1783.23 -395.045C1781.69 -395.59 1780.01 -395.59 1778.46 -395.045C1777.85 -394.578 1775.81 -394.56 1772.93 -395.045C1764.2 -396.518 1760.88 -396.536 1727.8 -395.35C1724.09 -395.225 1717.41 -395.297 1713 -395.512L1702.02 -396.033C1700.5 -396.088 1699 -396.348 1697.56 -396.806C1697.11 -397.004 1696.61 -397.07 1696.12 -396.997C1695.64 -396.924 1695.18 -396.714 1694.81 -396.393C1693.81 -395.548 1692.99 -395.602 1690.42 -396.752C1688.45 -397.615 1687.18 -397.884 1686.98 -397.255C1686.79 -396.626 1685.94 -396.554 1683.65 -397.129C1681.36 -397.704 1680.35 -397.471 1679.98 -396.824C1679.6 -396.177 1678.08 -395.943 1676.54 -396.177C1674.99 -396.411 1669.37 -396.752 1663.99 -396.914C1660.46 -396.863 1656.93 -397.201 1653.47 -397.92C1653.12 -398.106 1652.72 -398.192 1652.31 -398.166C1651.91 -398.141 1651.53 -398.006 1651.2 -397.776C1650.77 -397.469 1650.24 -397.338 1649.72 -397.412C1649.2 -397.485 1648.73 -397.758 1648.4 -398.172C1646.93 -399.573 1645.1 -399.591 1645.75 -398.531C1646.39 -397.471 1643.29 -397.471 1642.16 -398.531C1641.56 -399.124 1640.64 -399.088 1639.05 -398.405C1637.73 -397.875 1636.35 -397.542 1634.94 -397.417C1633.42 -397.381 1633.31 -397.525 1634.32 -398.243C1634.98 -398.711 1635.16 -399.106 1634.67 -399.106C1633.98 -398.96 1633.35 -398.587 1632.88 -398.046C1632.13 -397.327 1631.86 -397.543 1631.86 -398.046C1631.86 -398.549 1630.64 -399.627 1629.19 -400.346C1626.79 -401.604 1626.41 -401.604 1625.21 -400.346C1624.39 -399.483 1624.32 -398.962 1624.91 -398.98C1625.5 -398.998 1625.95 -398.711 1625.95 -398.369C1625.95 -398.028 1623.08 -397.794 1619.62 -397.866C1616.16 -397.938 1613.28 -398.315 1613.26 -398.765C1613.24 -399.214 1613.56 -399.537 1614.26 -399.555C1614.96 -399.573 1614.98 -399.807 1614.26 -400.49C1612.79 -401.873 1610.5 -400.759 1611.22 -398.962C1611.7 -397.776 1611.47 -397.633 1609.77 -398.046C1605.43 -399.142 1597.35 -399.322 1596.79 -398.351C1596.04 -396.932 1594.48 -397.093 1595 -398.549C1595.34 -399.537 1594.46 -399.699 1590.66 -399.537C1587.62 -399.411 1585.75 -399.699 1585.52 -400.346C1585.04 -401.532 1581.94 -401.604 1581.94 -400.346C1581.95 -399.897 1582.55 -399.519 1583.23 -399.537C1583.91 -399.555 1584.5 -399.322 1584.52 -398.639C1584.53 -397.956 1582.35 -397.794 1577.94 -397.956C1570.07 -398.279 1568.64 -398.441 1566.33 -399.645C1564.02 -400.849 1557.58 -401.478 1557.05 -400.561C1556.79 -400.112 1557.24 -399.429 1558.1 -398.98C1559.32 -398.315 1559.02 -398.046 1556.47 -398.046C1554.3 -397.956 1553.09 -398.387 1552.51 -399.34C1551.79 -400.561 1551.28 -400.454 1550.24 -399.501C1549.2 -398.549 1548.73 -398.477 1548.44 -399.232C1547.94 -400.436 1544.86 -400.526 1543.07 -399.376C1542.23 -398.836 1541.29 -399.016 1540.25 -399.915C1538.87 -401.119 1538.61 -400.975 1537.98 -400.022C1537.35 -399.07 1534.04 -398.747 1519.43 -398.226C1509.31 -397.866 1501.19 -397.219 1500.63 -396.734C1499.52 -395.782 1495.26 -396.249 1494.49 -397.417C1493.18 -398.023 1491.72 -398.247 1490.29 -398.064C1488.88 -397.889 1487.44 -398.1 1486.14 -398.675C1485.89 -399.07 1484.63 -399.214 1483.13 -398.944C1481.62 -398.675 1480.55 -398.872 1480.55 -399.429C1480.54 -399.67 1480.44 -399.898 1480.27 -400.068C1480.1 -400.238 1479.87 -400.337 1479.63 -400.346C1479.11 -400.328 1478.99 -399.933 1479.27 -399.483C1479.56 -399.034 1478.95 -398.603 1477.95 -398.603C1476.74 -398.498 1475.6 -398.014 1474.69 -397.219C1473.09 -395.728 1470.44 -396.357 1470.44 -398.154C1470.4 -399.106 1469.69 -399.322 1468.07 -399.106C1466.94 -398.922 1465.77 -399.027 1464.69 -399.411C1464.1 -399.753 1463.65 -399.627 1463.65 -399.124C1463.65 -399.01 1463.67 -398.897 1463.71 -398.791C1463.75 -398.685 1463.81 -398.589 1463.89 -398.509C1463.97 -398.428 1464.07 -398.365 1464.18 -398.322C1464.28 -398.28 1464.39 -398.259 1464.51 -398.261L1464.58 -398.265C1464.62 -398.265 1464.66 -398.261 1464.71 -398.255L1464.78 -398.238L1464.84 -398.22C1464.95 -398.183 1465.05 -398.124 1465.13 -398.046C1465.21 -397.968 1465.28 -397.873 1465.32 -397.768L1465.35 -397.695C1465.36 -397.657 1465.37 -397.618 1465.38 -397.579L1465.38 -397.546L1465.38 -397.498L1465.39 -397.435C1465.4 -396.249 1454.1 -396.033 1450.01 -397.147C1447.79 -397.758 1446.89 -398.621 1447.09 -399.214C1447.29 -399.807 1447.13 -400.346 1446.77 -400.346C1446.53 -400.306 1446.31 -400.198 1446.13 -400.035C1445.95 -399.873 1445.83 -399.663 1445.76 -399.429C1445.58 -398.818 1444.94 -398.729 1443.24 -399.322C1441.53 -399.915 1440.75 -399.807 1440.03 -398.89C1438.6 -397.093 1435.75 -397.255 1435.19 -399.196C1435.05 -399.658 1434.77 -400.065 1434.39 -400.359C1434.01 -400.652 1433.54 -400.818 1433.06 -400.831C1432 -400.813 1431.64 -400.436 1432 -399.879C1433.09 -398.172 1430.89 -397.758 1422.61 -398.172C1415.75 -398.531 1414.28 -398.854 1413.19 -400.328C1411.64 -402.412 1410.5 -402.143 1410.68 -400.436C1410.86 -398.729 1406.55 -398.01 1399.53 -398.729C1396.22 -399.07 1395.14 -399.483 1395.46 -400.292C1396 -401.729 1394.03 -402.358 1389.8 -402.089C1386.9 -401.891 1384.26 -400.418 1386.9 -400.418C1387.7 -400.418 1387.67 -400.22 1386.74 -399.681C1384.76 -399.154 1382.71 -399.008 1380.68 -399.25C1375.52 -399.591 1375.52 -399.663 1375.52 -404.012C1375.52 -405.359 1375.41 -405.233 1375.14 -404.209C1374.87 -403.185 1373.83 -402.682 1372.04 -402.682C1369.95 -402.612 1367.87 -402.42 1365.8 -402.107C1364.48 -401.746 1363.08 -401.796 1361.79 -402.251C1361.52 -402.7 1359.71 -402.682 1357.71 -402.251C1352.47 -401.639 1347.19 -401.369 1341.92 -401.442L1338.19 -401.439C1333.71 -401.436 1331.39 -401.435 1329.08 -401.374C1326.62 -401.309 1324.16 -401.176 1319.09 -400.903L1314.73 -400.669C1301.74 -399.897 1301.35 -400.004 1301.35 -401.694C1301.33 -402.628 1300.92 -403.401 1300.47 -403.401C1300.23 -403.382 1300.02 -403.272 1299.86 -403.094C1299.71 -402.916 1299.63 -402.684 1299.64 -402.448C1299.68 -401.316 1296.37 -398.208 1295.02 -398.208C1293.31 -397.403 1291.71 -396.356 1290.29 -395.099C1288.96 -393.941 1287.53 -392.913 1286.01 -392.026C1285.76 -392.008 1285.49 -393.104 1285.49 -394.542C1285.43 -396.411 1285.08 -397.093 1283.98 -397.058C1282.89 -397.022 1282.78 -397.255 1283.54 -398.046C1284.88 -399.465 1284.74 -400.418 1283.23 -400.418C1282.59 -400.4 1281.82 -399.537 1281.55 -398.477C1281.28 -397.417 1280.35 -394.883 1279.49 -392.817C1278.65 -390.717 1278 -388.55 1277.53 -386.34H1263.91ZM636.514 -397.994C637.083 -397.383 637.104 -397.123 636.514 -397.066C635.924 -397.123 635.946 -397.383 636.514 -397.994ZM406.338 -394.38C405.801 -394.343 405.261 -394.413 404.75 -394.585C404.24 -394.758 403.769 -395.03 403.363 -395.386C402.629 -396.716 403.095 -396.842 406.625 -396.303C410.155 -395.764 409.958 -394.29 406.338 -394.38ZM292.387 -397.776C292.277 -397.716 292.156 -397.679 292.031 -397.668C291.907 -397.658 291.782 -397.673 291.663 -397.714C291.607 -397.733 291.553 -397.758 291.501 -397.789C291.469 -397.808 291.439 -397.828 291.409 -397.851C291.387 -397.868 291.366 -397.886 291.345 -397.904L291.319 -397.93L291.284 -397.968L291.235 -398.028C291.213 -398.058 291.193 -398.089 291.174 -398.121C291.159 -398.149 291.145 -398.178 291.132 -398.208C290.863 -398.657 291.24 -399.052 291.92 -399.034C293.426 -399.034 293.623 -398.495 292.387 -397.776ZM866.366 -394.38C866.903 -394.343 867.442 -394.413 867.952 -394.585C868.461 -394.758 868.933 -395.03 869.337 -395.386C870.071 -396.716 869.605 -396.842 866.08 -396.303C862.555 -395.764 862.752 -394.29 866.366 -394.38ZM980.159 -397.776C980.269 -397.716 980.389 -397.679 980.513 -397.668C980.581 -397.663 980.649 -397.664 980.716 -397.674C980.772 -397.682 980.827 -397.695 980.881 -397.714C980.999 -397.754 981.106 -397.819 981.198 -397.904C981.29 -397.989 981.362 -398.093 981.412 -398.208C981.68 -398.657 981.304 -399.052 980.624 -399.034C979.121 -399.034 978.924 -398.495 980.159 -397.776ZM1515.25 -394.585C1514.74 -394.413 1514.2 -394.343 1513.66 -394.38C1510.04 -394.29 1509.84 -395.764 1513.37 -396.303C1516.9 -396.842 1517.37 -396.716 1516.64 -395.386C1516.23 -395.03 1515.76 -394.758 1515.25 -394.585ZM1627.97 -397.668C1627.84 -397.679 1627.72 -397.716 1627.61 -397.776C1626.38 -398.495 1626.57 -399.034 1628.08 -399.034C1628.76 -399.052 1629.14 -398.657 1628.87 -398.208C1628.82 -398.093 1628.75 -397.989 1628.65 -397.904C1628.56 -397.819 1628.45 -397.754 1628.34 -397.714C1628.22 -397.673 1628.09 -397.658 1627.97 -397.668ZM1513.66 24.3802C1514.2 24.3429 1514.74 24.4127 1515.25 24.5853C1515.76 24.758 1516.23 25.0303 1516.64 25.3864C1517.37 26.7161 1516.9 26.8419 1513.37 26.3029C1509.84 25.7638 1510.04 24.2903 1513.66 24.3802ZM1627.61 27.7763C1627.72 27.7159 1627.84 27.6793 1627.97 27.6685C1628.09 27.6577 1628.22 27.6731 1628.34 27.7137C1628.41 27.7376 1628.47 27.7699 1628.53 27.8099C1628.56 27.8254 1628.58 27.842 1628.6 27.8597L1628.65 27.9042C1628.75 27.9893 1628.82 28.0926 1628.87 28.2075C1629.14 28.6568 1628.76 29.0521 1628.08 29.0341C1626.57 29.0341 1626.38 28.4951 1627.61 27.7763ZM890.637 24.5853C890.126 24.4127 889.588 24.3429 889.052 24.3802C885.436 24.2903 885.239 25.7638 888.764 26.3029C892.291 26.8419 892.756 26.7161 892.022 25.3864C891.617 25.0303 891.147 24.758 890.637 24.5853ZM1003.2 27.6685C1003.07 27.6793 1002.95 27.7159 1002.84 27.7763C1001.61 28.4951 1001.81 29.0341 1003.31 29.0341C1003.99 29.0521 1004.37 28.6568 1004.1 28.2075C1004.07 28.1517 1004.04 28.0985 1004.01 28.0489C1003.97 27.9964 1003.93 27.9479 1003.88 27.9042C1003.79 27.8192 1003.68 27.7542 1003.56 27.7137C1003.45 27.6731 1003.32 27.6577 1003.2 27.6685ZM405.35 24.4323C405.147 24.468 404.946 24.5191 404.75 24.5853C404.24 24.758 403.769 25.0303 403.363 25.3864C402.629 26.7161 403.095 26.8419 406.625 26.3029C410.155 25.7638 409.958 24.2903 406.338 24.3802C406.007 24.3572 405.675 24.3749 405.35 24.4323ZM292.387 27.7763C292.277 27.7159 292.156 27.6793 292.031 27.6685C291.907 27.6577 291.782 27.6731 291.663 27.7137C291.546 27.7542 291.438 27.8192 291.345 27.9042C291.254 27.9893 291.181 28.0926 291.132 28.2075C290.863 28.6568 291.24 29.0521 291.92 29.0341C293.426 29.0341 293.623 28.4951 292.387 27.7763Z" fill="#2A2A2A"></path></g><defs><clipPath id="clip0_323_959"><rect width="1920" height="36" fill="white"></rect></clipPath></defs></svg>